<?xml version="1.0" standalone="no"?>
<!DOCTYPE svg PUBLIC "-//W3C//DTD SVG 20010904//EN"
 "http://www.w3.org/TR/2001/REC-SVG-20010904/DTD/svg10.dtd">
<svg version="1.0" xmlns="http://www.w3.org/2000/svg"
 width="189.000000pt" height="189.000000pt" viewBox="0 0 189.000000 189.000000"
 preserveAspectRatio="xMidYMid meet">
<metadata>
Created by potrace 1.11, written by Peter Selinger 2001-2013
</metadata>
<g transform="translate(0.000000,189.000000) scale(0.100000,-0.100000)"
fill="#000000" stroke="none">
<path d="M866 1587 c-36 -26 4 -84 42 -61 23 15 26 38 7 58 -20 19 -26 20 -49
3z"/>
<path d="M951 1519 c-72 -9 -207 -47 -234 -65 -17 -11 -14 -13 22 -19 73 -12
82 -28 79 -123 l-3 -84 -77 51 c-83 54 -86 60 -64 123 l13 38 -26 -19 c-54
-39 -136 -138 -184 -222 -34 -59 -34 -62 6 -40 69 40 78 38 146 -40 34 -39 59
-74 56 -78 -2 -5 -45 -14 -94 -21 -102 -15 -112 -11 -133 45 -16 45 -28 35
-29 -23 -1 -26 -4 -60 -8 -77 -5 -24 -8 -26 -13 -12 -9 21 -56 23 -64 2 -4 -8
-3 -26 0 -39 5 -19 11 -24 28 -21 12 3 26 9 32 15 19 19 26 10 27 -37 0 -27 6
-70 13 -98 l12 -50 20 45 c32 69 37 71 138 58 66 -9 85 -15 81 -25 -10 -27
-98 -145 -112 -150 -8 -3 -33 2 -55 11 -23 9 -43 14 -46 12 -9 -10 146 -160
207 -200 85 -56 120 -66 266 -73 147 -7 197 5 305 75 177 115 237 208 275 429
12 69 12 84 -6 152 -10 42 -41 121 -69 176 -54 106 -83 136 -198 204 -62 37
-172 84 -179 78 -2 -3 9 -24 26 -48 17 -23 31 -46 31 -51 0 -12 -92 -127 -102
-127 -11 -1 -50 127 -46 156 2 18 14 35 35 48 58 36 45 40 -76 24z m21 -206
l48 -47 -26 -34 -26 -34 73 39 c40 21 79 43 86 50 14 13 52 27 58 21 2 -1 6
-33 10 -70 l7 -67 -37 -7 c-47 -9 -30 -20 45 -29 122 -15 135 -19 138 -42 2
-12 -5 -30 -15 -40 -11 -11 -26 -29 -35 -42 -15 -22 -17 -22 -46 -7 -45 23
-49 20 -19 -12 15 -16 24 -31 20 -35 -3 -4 1 -7 10 -7 19 0 49 -39 40 -54 -3
-6 -2 -8 2 -3 10 9 55 -31 55 -49 0 -7 -28 -22 -62 -33 l-63 -19 -13 25 c-29
54 -112 255 -108 262 3 4 -10 8 -28 9 -33 2 -34 2 -83 -110 l-50 -113 25 -3
c17 -3 31 3 42 18 13 17 25 21 62 19 35 -2 48 -7 51 -20 3 -10 16 -19 33 -21
26 -3 29 -7 31 -43 2 -22 6 -76 9 -119 6 -65 4 -78 -7 -74 -8 3 -38 13 -67 24
l-54 19 6 40 c6 46 13 52 -71 -70 -26 -38 -54 -70 -60 -73 -13 -4 -73 82 -73
105 0 7 11 18 25 25 13 6 22 14 20 18 -3 5 -45 -5 -95 -21 -49 -16 -99 -29
-110 -29 -24 0 -26 23 -9 100 10 47 12 50 42 50 27 0 17 8 -68 53 -56 29 -100
59 -100 67 0 8 27 33 60 56 55 39 61 41 78 27 10 -10 17 -31 17 -54 0 -88 115
-136 190 -79 24 18 24 20 7 37 -14 15 -21 16 -37 5 -22 -13 -59 -16 -77 -4
-19 12 -31 55 -22 80 13 35 51 48 87 29 28 -14 32 -13 47 3 15 16 14 19 -11
39 -18 14 -41 21 -71 21 -38 0 -50 -5 -79 -34 -30 -30 -35 -32 -43 -18 -13 26
-61 162 -61 174 0 11 132 4 151 -8 5 -3 9 -20 10 -37 0 -26 5 -20 25 38 40
116 55 155 62 155 3 0 28 -21 54 -47z m406 21 c18 -5 22 -13 22 -43 0 -66 -17
-83 -94 -98 -39 -7 -72 -10 -74 -8 -6 6 35 106 54 134 15 21 47 27 92 15z
m132 -316 l30 -32 -37 -38 c-20 -21 -44 -38 -53 -38 -9 0 -44 15 -79 34 -72
38 -73 35 24 85 56 29 81 26 115 -11z m-425 -56 c-22 -5 -27 1 -19 23 7 17 8
17 21 -1 12 -17 12 -19 -2 -22z m249 -207 c37 -8 75 -20 82 -26 8 -6 14 -30
14 -54 0 -47 -11 -55 -81 -55 -35 0 -37 2 -68 68 -17 38 -31 72 -31 75 0 9 4
9 84 -8z m-474 -201 l0 -85 -35 -15 c-19 -7 -40 -14 -47 -14 -13 0 -58 75 -58
97 0 14 122 112 133 106 4 -2 7 -42 7 -89z m316 -41 c5 -20 -28 -93 -42 -93
-12 0 -81 40 -92 52 -10 12 1 83 24 158 6 18 100 -83 110 -117z"/>
<path d="M1275 1506 c-25 -18 -16 -60 14 -64 31 -5 54 23 41 48 -13 24 -35 31
-55 16z"/>
<path d="M494 1376 c-15 -40 21 -81 50 -57 21 17 21 57 0 65 -26 10 -44 7 -50
-8z"/>
<path d="M1526 1197 c-28 -20 -18 -61 16 -65 37 -4 57 31 32 59 -20 23 -25 23
-48 6z"/>
<path d="M1526 795 c-19 -20 -20 -26 -3 -49 26 -36 84 4 61 42 -15 23 -38 26
-58 7z"/>
<path d="M525 531 c-9 -30 5 -51 35 -51 30 0 44 21 35 51 -4 13 -16 19 -35 19
-19 0 -31 -6 -35 -19z"/>
<path d="M1280 475 c-14 -17 -5 -51 16 -59 22 -8 54 11 54 32 0 38 -46 56 -70
27z"/>
<path d="M897 384 c-14 -14 -7 -53 12 -63 26 -14 54 8 49 40 -2 17 -10 25 -28
27 -14 2 -29 0 -33 -4z"/>
</g>
</svg>
